# xmcd
#
# Track frame offsets:
#	150
#	20966
#	39141
#	58098
#	69445
#	92338
#	117023
#	134981
#	161484
#	181004
#	197284
#	216462
#	234994
#	254956
#	281759
#	299479
#
# Disc length: 4309 seconds
#
# Revision: 0
# Processed by: cddbd v1.5.2PL0 Copyright (c) Steve Scherf et al.
# Submitted via: EasyCDDAExtractor 4.6.0.1
#
DISCID=f210d310
DTITLE=Various Artist - Baby, please don't stop me
DYEAR=2005
DGENRE=Blues
TTITLE0=Sol Fiya - Blood is only young
TTITLE1=Big House - Playing to live
TTITLE2=Los Lonely Boys - Senorita
TTITLE3=Leon Russel - End of the road
TTITLE4=Omar and The Howlers - Boogie Man
TTITLE5=Billy Branch - Beyond the rainbow
TTITLE6=Rab McCullough - I lettle rain must fall
TTITLE7=Mark May - Gangsta\s Blues
TTITLE8=Paul Cammileri - In the middle of the night
TTITLE9=Joe Bonamassa - Your upset  me baby
TTITLE10=Jumpin'Jack's - Just what want
TTITLE11=The Buddaheads - Mumbo Jumbo
TTITLE12=The Cate Brothers - Yield not to templotacion
TTITLE13=Scott Ellison - Let's think twice
TTITLE14=Ron Hacker and The Hacksaws - Red Cross Stone
TTITLE15=Sir oliver Mally's Distillery - Killing you by degres
EXTD=
EXTT0=
EXTT1=
EXTT2=
EXTT3=
EXTT4=
EXTT5=
EXTT6=
EXTT7=
EXTT8=
EXTT9=
EXTT10=
EXTT11=
EXTT12=
EXTT13=
EXTT14=
EXTT15=
PLAYORDER=
